Coordinates
version=1
nRows=17
nColumns=40
inDegrees=yes

Units are S.I. units (second, meters, Newtons, ...)
Angles are in degrees.

endheader
time	pelvis_tilt	pelvis_list	pelvis_rotation	pelvis_tx	pelvis_ty	pelvis_tz	hip_flexion_r	hip_adduction_r	hip_rotation_r	knee_angle_r	knee_angle_r_beta	ankle_angle_r	subtalar_angle_r	mtp_angle_r	hip_flexion_l	hip_adduction_l	hip_rotation_l	knee_angle_l	knee_angle_l_beta	ankle_angle_l	subtalar_angle_l	mtp_angle_l	lumbar_extension	lumbar_bending	lumbar_rotation	arm_flex_r	arm_add_r	arm_rot_r	elbow_flex_r	pro_sup_r	wrist_flex_r	wrist_dev_r	arm_flex_l	arm_add_l	arm_rot_l	elbow_flex_l	pro_sup_l	wrist_flex_l	wrist_dev_l
     19.48250000	     -3.79860171	     -4.22445513	     -5.94226571	      1.04189390	      0.93059324	      0.51268430	     16.23418083	      2.81037499	     -6.25977122	     18.21350182	     18.21350182	      8.05406565	      3.98588229	     -6.45042920	     -1.80799090	     -8.45203227	    -11.95415432	     13.60728484	     13.60728484	     16.17449804	     -7.62152439	     -0.40260268	     -7.66630990	      7.12096876	      1.33233346	    -10.11579227	    -12.38018873	     -7.35769301	     29.04583289	     45.77394679	      0.00000000	      0.00000000	     33.44598512	    -18.77868609	    -13.59266177	     79.45814531	     48.43751621	      0.00000000	      0.00000000
     19.50714286	     -3.91937708	     -4.56131566	     -5.43594683	      1.04230115	      0.93065110	      0.51800825	     15.70309413	      3.50790258	     -6.55614863	     17.79357003	     17.79357003	      8.50348190	      3.72423058	     -5.72364415	     -1.36827116	     -9.53055977	    -12.28649106	     14.92299564	     14.92299564	     17.32317330	     -6.18348026	      1.50163943	     -7.54305293	      7.25818372	      1.25390176	     -8.95464137	    -12.34759977	     -7.44247354	     27.64909253	     45.88171204	      0.00000000	      0.00000000	     32.36716123	    -19.03082446	    -12.12431616	     78.47986452	     48.29912844	      0.00000000	      0.00000000
     19.53178571	     -3.91326661	     -4.59229453	     -4.99354883	      1.04271298	      0.93074263	      0.52286487	     15.27140485	      3.79718087	     -6.87739840	     17.74154363	     17.74154363	      8.89869498	      3.61112114	     -5.80999801	     -1.45298161	     -9.98412522	    -11.93435722	     15.28522232	     15.28522232	     17.14669169	     -6.17296538	      1.57844796	     -7.57839266	      7.03468404	      1.45422527	     -8.35242398	    -12.28962576	     -7.44350059	     27.84530502	     45.87995710	      0.00000000	      0.00000000	     31.13741281	    -18.34778917	    -11.83102018	     78.01271781	     48.26200172	      0.00000000	      0.00000000
     19.55642857	     -4.01966386	     -4.87709551	     -4.46718853	      1.04297330	      0.93065158	      0.52755054	     14.73573786	      4.37042707	     -7.38085506	     17.26809226	     17.26809226	      9.14042455	      3.69921656	     -5.70891563	     -1.09622244	    -10.79456093	    -11.40585894	     16.23082981	     16.23082981	     17.18624052	     -6.39006475	      1.82582615	     -7.42243986	      7.18139563	      1.31013645	     -7.45332311	    -12.32340226	     -7.52084420	     27.95166320	     45.89507632	      0.00000000	      0.00000000	     29.58374482	    -18.11689868	    -11.43394546	     76.87419633	     48.20172775	      0.00000000	      0.00000000
     19.58107143	     -4.04674040	     -4.99036600	     -3.97836226	      1.04321910	      0.93054500	      0.53199855	     14.28770969	      4.73691600	     -7.77644533	     17.09195201	     17.09195201	      9.47986857	      3.64569669	     -5.67177194	     -0.87986174	    -11.36633663	    -10.96391387	     17.03250386	     17.03250386	     17.28443529	     -6.48280373	      2.24331876	     -7.33068554	      7.09653152	      1.25509496	     -6.37785537	    -12.24962219	     -7.57327348	     27.92483288	     45.91683984	      0.00000000	      0.00000000	     27.93362324	    -17.75710450	    -10.94762858	     75.59535564	     48.13134218	      0.00000000	      0.00000000
     19.60571429	     -4.02752713	     -5.07833927	     -3.49578917	      1.04341606	      0.93042180	      0.53618882	     13.85276520	      5.06252789	     -8.12704948	     17.02036537	     17.02036537	      9.83077501	      3.52566151	     -5.64542746	     -0.65009999	    -11.87952411	    -10.46048824	     17.91967901	     17.91967901	     17.38037778	     -6.72173398	      2.66748265	     -7.27756650	      6.99783670	      1.29858005	     -5.20708461	    -12.18528780	     -7.61671132	     27.86109329	     45.94032567	      0.00000000	      0.00000000	     26.13415763	    -17.27693652	    -10.46801628	     74.20365236	     48.05815833	      0.00000000	      0.00000000
     19.63035714	     -3.98930648	     -5.12884333	     -2.99029155	      1.04349453	      0.93024430	      0.54008777	     13.45883106	      5.33021200	     -8.45383576	     17.04244908	     17.04244908	     10.19798478	      3.30998878	     -5.60048160	     -0.28799777	    -12.32670369	     -9.83857391	     19.02324554	     19.02324554	     17.45453609	     -7.17424589	      3.06537155	     -7.23985299	      6.87231622	      1.33445344	     -3.86951707	    -12.09378919	     -7.65507017	     27.76127531	     45.96697541	      0.00000000	      0.00000000	     24.22379247	    -16.77393483	    -10.00999319	     72.57698331	     47.98099850	      0.00000000	      0.00000000
     19.65500000	     -3.87028933	     -5.20486785	     -2.45012061	      1.04347678	      0.93000131	      0.54375128	     13.04481945	      5.61276863	     -8.75324793	     17.17842927	     17.17842927	     10.65226362	      3.00574757	     -5.60752751	      0.20949981	    -12.79998699	     -9.17403121	     20.46937065	     20.46937065	     17.38779347	     -7.89469206	      3.19487858	     -7.29884467	      6.77100279	      1.41405608	     -2.47969507	    -12.06861469	     -7.68545380	     27.81335395	     45.98491318	      0.00000000	      0.00000000	     22.20611276	    -16.17231999	     -9.58311894	     70.93556999	     47.90592237	      0.00000000	      0.00000000
     19.67964286	     -3.78277257	     -5.22776126	     -1.84405110	      1.04324419	      0.92956551	      0.54704818	     12.77679915	      5.81370110	     -8.99138577	     17.47307086	     17.47307086	     11.11279952	      2.51044642	     -5.55639812	      1.07521460	    -13.19780744	     -8.28666925	     22.41883593	     22.41883593	     17.21447912	     -8.97715478	      3.15153984	     -7.30467652	      6.65311585	      1.38038691	     -0.85935125	    -11.98921061	     -7.70171044	     27.79511549	     46.00767170	      0.00000000	      0.00000000	     20.11474601	    -15.60675121	     -9.15482893	     68.89476122	     47.82269545	      0.00000000	      0.00000000
     19.70428571	     -3.65082407	     -5.18024698	     -1.21145456	      1.04277945	      0.92902968	      0.55005318	     12.62886085	      5.93568922	     -9.08547268	     18.05851628	     18.05851628	     11.80767015	      1.67134858	     -5.05902737	      2.17331684	    -13.44052780	     -7.17799890	     24.77450782	     24.77450782	     16.72718813	    -10.72050640	      2.87332955	     -7.30277200	      6.45923650	      1.43848810	      1.33418233	    -11.88997702	     -7.74421425	     26.50030563	     46.10920035	      0.00000000	      0.00000000	     18.35088536	    -14.90201782	     -8.71484459	     65.72843531	     47.71115255	      0.00000000	      0.00000000
     19.72892857	     -3.37180139	     -5.31346653	     -0.47776833	      1.04209075	      0.92830649	      0.55284066	     12.32509321	      6.22001067	     -9.38724762	     18.59397482	     18.59397482	     12.34435562	      0.97499476	     -5.11469170	      3.64204547	    -13.99615591	     -6.25087563	     28.01900266	     28.01900266	     16.19119132	    -12.15887791	      2.24704518	     -7.60726558	      6.44786371	      1.55872119	      3.06066286	    -11.95422732	     -7.80940593	     26.93634250	     46.11570507	      0.00000000	      0.00000000	     16.17869777	    -14.22668099	     -8.27401729	     64.03165318	     47.63204914	      0.00000000	      0.00000000
     19.75357143	     -3.32698689	     -5.38321595	      0.35924222	      1.04092750	      0.92690063	      0.55528537	     12.52457789	      6.44055874	     -9.49585299	     19.50041932	     19.50041932	     12.95820944	     -0.37143777	     -5.07871603	      5.84629682	    -14.39409080	     -4.96547330	     31.90863064	     31.90863064	     15.21513438	    -14.19249458	      1.44893606	     -7.60265733	      6.38816548	      1.36394765	      5.08062064	    -11.93081066	     -7.84969332	     27.24579989	     46.12946603	      0.00000000	      0.00000000	     13.93180045	    -13.69418247	     -7.75735371	     61.52161845	     47.53295056	      0.00000000	      0.00000000
     19.77821429	     -3.07203020	     -5.45279909	      1.20488028	      1.03957971	      0.92545233	      0.55758415	     12.63439130	      6.73883554	     -9.18240690	     20.62347600	     20.62347600	     13.77640969	     -2.37944148	     -4.42209292	      8.04063165	    -14.74912400	     -3.74358949	     36.08962725	     36.08962725	     13.66980658	    -16.49240894	      0.21985352	     -7.80898610	      6.29700308	      1.46196865	      7.62541906	    -11.97465793	     -7.87000940	     26.31045036	     46.21459593	      0.00000000	      0.00000000	     12.48248322	    -12.99979863	     -6.94569585	     57.41663502	     47.38212123	      0.00000000	      0.00000000
     19.80285714	     -2.79410302	     -5.70446280	      2.18204926	      1.03800897	      0.92349566	      0.55962849	     12.75951908	      7.13075878	     -9.42363525	     21.74576407	     21.74576407	     14.43681216	     -3.77034014	     -4.51571708	     10.68517656	    -15.38033200	     -2.59116206	     40.94734385	     40.94734385	     12.43836343	    -17.87915471	     -0.07673871	     -8.12025080	      6.41239254	      1.50670569	      9.76534372	    -12.16449214	     -7.97068447	     26.98682681	     46.21716109	      0.00000000	      0.00000000	     10.30807197	    -12.38022939	     -6.37538625	     55.41582567	     47.28578213	      0.00000000	      0.00000000
     19.82750000	     -2.53111165	     -5.87459988	      3.15337323	      1.03614335	      0.92123566	      0.56163394	     13.11880706	      7.58809025	     -8.97996394	     23.18724594	     23.18724594	     15.24902929	     -6.34989889	     -3.67139051	     13.62080100	    -15.79513508	     -1.29487800	     46.18945607	     46.18945607	     12.43788270	    -18.56467460	      3.64218760	     -8.37410309	      6.40482756	      1.68769145	     12.52805753	    -12.31378421	     -8.22588750	     26.48984186	     46.30606466	      0.00000000	      0.00000000	      9.09799985	    -11.89843582	     -4.82933124	     50.83306280	     47.06367477	      0.00000000	      0.00000000
     19.85214286	     -2.30547174	     -6.13027068	      4.20707019	      1.03426790	      0.91845825	      0.56343220	     13.53601629	      8.06828853	     -8.89797566	     24.60741975	     24.60741975	     15.89844278	     -8.52136727	     -3.58214825	     16.65587708	    -16.31038310	     -0.05498151	     51.19352517	     51.19352517	     11.37031015	    -19.03265720	      5.21545296	     -8.57410791	      6.51281162	      1.41646797	     15.03646652	    -12.42046050	     -8.40598385	     27.53373171	     46.30168834	      0.00000000	      0.00000000	      6.81881062	    -11.55330028	     -4.06612272	     48.46127183	     46.94098222	      0.00000000	      0.00000000
     19.87678571	     -1.97907506	     -6.33861716	      5.27276188	      1.03222023	      0.91578796	      0.56495089	     13.87979085	      8.52691335	     -8.77769002	     26.05521645	     26.05521645	     16.69004056	    -10.70707834	     -2.65912874	     19.78258962	    -16.39934778	      1.63899424	     56.33171813	     56.33171813	     12.63339747	    -19.22356989	     13.77299348	     -8.91555519	      6.56553604	      1.78532966	     17.67516528	    -12.84035870	     -8.87063741	     27.88704620	     46.35706443	      0.00000000	      0.00000000	      5.61089744	    -11.13612097	     -1.91246853	     44.39377135	     46.66551671	      0.00000000	      0.00000000
